<svg width="19" height="19" viewBox="0 0 19 19" fill="none" xmlns="http://www.w3.org/2000/svg">
<path d="M17.0533 0.958984H1.94675C1.148 0.958984 0.5 1.60698 0.5 2.40573V17.5122C0.5 18.311 1.148 18.959 1.94675 18.959H17.0533C17.852 18.959 18.5 18.311 18.5 17.5122V2.40573C18.5 1.60698 17.852 0.958984 17.0533 0.958984ZM17.0533 17.519C6.97775 17.5167 1.94 17.5145 1.94 17.5122C1.94225 7.43674 1.9445 2.39898 1.94675 2.39898C12.0223 2.40123 17.06 2.40348 17.06 2.40573C17.0578 12.4812 17.0555 17.519 17.0533 17.519ZM3.1685 7.70673H5.83925V16.2972H3.1685V7.70673ZM4.505 6.53223C5.35775 6.53223 6.053 5.83923 6.053 4.98423C6.053 4.78095 6.01296 4.57965 5.93517 4.39184C5.85737 4.20403 5.74335 4.03338 5.5996 3.88963C5.45586 3.74589 5.28521 3.63186 5.09739 3.55407C4.90958 3.47627 4.70829 3.43623 4.505 3.43623C4.30171 3.43623 4.10042 3.47627 3.91261 3.55407C3.72479 3.63186 3.55414 3.74589 3.4104 3.88963C3.26665 4.03338 3.15263 4.20403 3.07483 4.39184C2.99704 4.57965 2.957 4.78095 2.957 4.98423C2.95475 5.83923 3.64775 6.53223 4.505 6.53223ZM10.1818 12.047C10.1818 10.9265 10.3955 9.84198 11.7838 9.84198C13.1518 9.84198 13.172 11.1222 13.172 12.119V16.2972H15.8405V11.5857C15.8405 9.27273 15.341 7.49298 12.6388 7.49298C11.3405 7.49298 10.4698 8.20623 10.112 8.88123H10.076V7.70673H7.51325V16.2972H10.1818V12.047Z" fill="#ACCD00"/>
</svg>
