<svg width="19" height="19" viewBox="0 0 19 19" fill="none" xmlns="http://www.w3.org/2000/svg">
<path d="M15.804 3.54961C14.1205 1.85934 11.8786 0.929688 9.49598 0.929688C4.57812 0.929688 0.576339 4.93805 0.576339 9.864C0.576339 11.4376 0.986161 12.9749 1.76562 14.3312L0.5 18.9593L5.22902 17.7157C6.5308 18.4281 7.99732 18.8023 9.49196 18.8023H9.49598C14.4098 18.8023 18.5 14.794 18.5 9.86802C18.5 7.48152 17.4875 5.23989 15.804 3.54961ZM9.49598 17.2972C8.16205 17.2972 6.85625 16.939 5.7192 16.2629L5.45 16.1019L2.64554 16.8384L3.39286 14.0977L3.21607 13.816C2.47277 12.6328 2.08304 11.2685 2.08304 9.864C2.08304 5.77112 5.40982 2.43886 9.5 2.43886C11.4808 2.43886 13.3411 3.21156 14.7393 4.6161C16.1375 6.02064 16.9973 7.88396 16.9933 9.86802C16.9933 13.9649 13.5821 17.2972 9.49598 17.2972ZM13.5621 11.7354C13.3411 11.6227 12.2442 11.0834 12.0393 11.011C11.8344 10.9345 11.6857 10.8983 11.5371 11.1237C11.3884 11.349 10.9625 11.8481 10.8299 12.001C10.7013 12.1499 10.5688 12.17 10.3478 12.0573C9.03795 11.4013 8.17813 10.8862 7.31429 9.40119C7.08527 9.00679 7.5433 9.03496 7.9692 8.18177C8.04152 8.03287 8.00536 7.90409 7.94911 7.7914C7.89286 7.67872 7.44688 6.58004 7.26205 6.13332C7.08125 5.69868 6.89643 5.75905 6.75982 5.751C6.63125 5.74295 6.48259 5.74295 6.33393 5.74295C6.18527 5.74295 5.9442 5.79929 5.73929 6.02064C5.53437 6.24601 4.95982 6.78528 4.95982 7.88396C4.95982 8.98264 5.75938 10.0451 5.86786 10.194C5.98036 10.3429 7.43884 12.5966 9.67679 13.5665C11.0911 14.1782 11.6455 14.2305 12.3527 14.1259C12.7826 14.0615 13.6705 13.5866 13.8554 13.0634C14.0402 12.5403 14.0402 12.0936 13.9839 12.001C13.9317 11.9004 13.783 11.844 13.5621 11.7354Z" fill="#ACCD00"/>
</svg>
