<?xml version="1.0" encoding="UTF-8"?>
<svg id="Layer_1" xmlns="http://www.w3.org/2000/svg" width="307.6" height="218.1" viewBox="0 0 307.6 218.1">
  <path d="M302.8,0c2.4,0,4.2,2,4,4.4-1.6,15.6-11.5,29.2-26.1,35.3s-31.2,3.5-43.3-6.4c-1.8-1.5-1.9-4.2-.3-5.9,4.9-4.9,9.8-9.9,14.7-14.8,8-8.1,18.9-12.6,30.2-12.6h20.8Z" style="fill: #accd00;"/>
  <g>
    <path d="M34.7,82.6c0,11.9.1,20.3.4,25.1.3,4.8.7,7.7,1.4,8.6.2.3,1.6,1.2,3.9,2.5,2.4,1.3,3.6,3,3.6,5.1,0,2.5-1.5,4.3-4.6,5.3-3,1-8.6,1.5-16.6,1.5s-13.5-.5-16.5-1.5-4.5-2.8-4.5-5.3c0-2.1,1.2-3.8,3.6-5.1s3.7-2.2,3.9-2.5c.5-.8.9-2.8,1.1-6.1s.3-11.2.3-23.7v-16.5c0-10.9-.1-18.1-.4-21.8s-.7-5.9-1.4-6.8c-.3-.5-1.9-1.1-4.7-2-2.8-.9-4.2-2.5-4.2-4.7,0-1.1.5-2.2,1.5-3.2s2.5-1.9,4.5-2.8c4.5-2.1,8.9-3.8,13.2-5s8-1.8,11-1.8c2,0,3.4.5,4.1,1.4.7.9,1,3,1,6.1,0,.4,0,1.8-.1,4.2-.3,15.7-.5,32.1-.5,49Z" style="fill: #fff;"/>
    <path d="M83.2,83.1v18.2c0,5.9.1,9.8.4,11.8.3,2,.8,3.3,1.5,3.9.5.3,1.3.8,2.5,1.4,3,1.4,4.5,3.2,4.5,5.5,0,2.5-1.5,4.3-4.6,5.3-3,1-8.6,1.5-16.6,1.5s-13.4-.5-16.4-1.5-4.5-2.8-4.5-5.3c0-2.2,1.5-4.1,4.4-5.5,1.1-.6,1.9-1,2.4-1.4.8-.7,1.3-2.1,1.6-4.4s.4-6.8.4-13.7c0-10.7-.2-17.4-.6-20.2-.4-2.8-1.1-4.6-2.1-5.4-.2-.1-1.6-.6-4.2-1.4-2.6-.8-3.9-2.4-3.9-4.7,0-1.1.5-2.2,1.5-3.2s2.4-2,4.4-2.9c4.4-2,8.8-3.6,13.1-4.8s8-1.7,11.1-1.7c2.1,0,3.5.4,4.2,1.3.7.9,1,2.8,1,5.7,0,.4,0,1.5-.1,3.1.1,6.4,0,12.6,0,18.4ZM53.4,34.4c0-3.5,1.6-6.4,4.8-8.9s7.1-3.7,11.7-3.7c4.3,0,7.8,1.1,10.6,3.3s4.2,4.9,4.2,8.2-1.6,6.2-4.7,8.6c-3.1,2.3-7,3.5-11.6,3.5s-8.1-1-10.9-3.1c-2.7-2.1-4.1-4.7-4.1-7.9Z" style="fill: #fff;"/>
    <path d="M130.5,59.7v4.5c0,.7.1,1.2.2,1.5.1.4.4.5.6.5.8,0,1.8-.9,3.3-2.6,1-1.2,1.9-2.2,2.6-2.9,2.1-2.1,4.5-3.7,7.3-4.7,2.8-1,5.9-1.6,9.4-1.6s6.5.5,9.3,1.6c2.8,1,5.5,2.7,8.3,5,1.1.9,2.3,2.1,3.4,3.7,1.1,1.5,1.9,2.3,2.3,2.3.7,0,1.7-.7,3.1-2,.6-.6,1-1,1.4-1.4,3.3-3.1,6.6-5.4,9.9-6.9s6.9-2.2,10.7-2.2,7.5.7,10.9,2.2c3.4,1.4,6.1,3.5,8.2,6,2.2,2.7,3.7,6,4.7,10,.9,4,1.4,9.6,1.4,16.7v11.2c0,5.6.1,9.5.3,11.6.2,2.1.5,3.5,1,4.2.3.3,1.6,1.2,4,2.5s3.6,3,3.6,5.1c0,2.5-1.5,4.3-4.5,5.3s-8.5,1.5-16.5,1.5-13.5-.5-16.6-1.5c-3-1-4.6-2.8-4.6-5.3,0-2.2,1.5-4.1,4.6-5.5,1.2-.6,2-1,2.4-1.4.7-.6,1.2-1.9,1.5-4,.3-2,.4-6.1.4-12.2,0-11.9-.8-19.5-2.4-22.9s-4.6-5.2-8.8-5.2-7.5,2-9.6,6.1-3.2,10.2-3.2,18.5c0,6.3.1,10.8.3,13.6.2,2.8.6,4.6,1.1,5.4.3.3,1.6,1.2,4,2.5s3.6,3,3.6,5.1c0,2.5-1.5,4.3-4.6,5.3s-8.6,1.5-16.5,1.5-13.5-.5-16.5-1.5-4.5-2.8-4.5-5.3c0-2.2,1.5-4.1,4.5-5.5,1.1-.6,1.9-1,2.3-1.4.8-.7,1.3-2.1,1.6-4.3.3-2.2.5-6.2.5-11.9,0-11.7-.8-19.3-2.5-22.8-1.6-3.5-4.6-5.3-8.9-5.3s-7.6,2.1-9.7,6.3c-2.1,4.2-3.1,10.8-3.1,19.8,0,5.7.1,9.9.3,12.5s.6,4.2,1.1,4.9c.3.4,1.6,1.2,3.9,2.5,2.3,1.3,3.5,3,3.5,5.1,0,2.5-1.5,4.3-4.5,5.3s-8.5,1.5-16.5,1.5-13.5-.5-16.5-1.5-4.6-2.8-4.6-5.3c0-2.2,1.5-4.1,4.6-5.5,1.2-.6,2-1,2.4-1.4.8-.6,1.3-2.1,1.6-4.3.3-2.3.5-7.6.5-16.1,0-9.1-.2-15.1-.6-17.9-.4-2.8-1-4.6-2-5.3-.2-.1-1.6-.6-4.3-1.5-2.7-.8-4-2.4-4-4.7,0-1.1.5-2.2,1.5-3.2s2.4-2,4.4-2.9c4.4-2,8.7-3.6,13.1-4.8,4.3-1.2,8-1.7,11.1-1.7,1.9,0,3.2.4,3.9,1.1.5.6.9,2,.9,4Z" style="fill: #fff;"/>
    <path d="M299.9,93.9h-35.7c-1.7,0-2.7.2-3.1.5s-.6.9-.6,1.8c0,5,1.9,9.4,5.6,13.1,3.7,3.7,8.3,5.5,13.6,5.5,4,0,8.2-1,12.6-3.1s7-3.1,7.7-3.1c1.4,0,2.5.4,3.5,1.2s1.5,1.8,1.5,3c0,1.9-.5,3.6-1.5,5.2-1,1.6-2.6,3.3-5,5.2-3.5,2.8-7.5,4.9-11.9,6.4s-9.1,2.2-14,2.2c-11.4,0-20.7-3.6-27.8-10.7-7.1-7.1-10.7-16.4-10.7-27.8s3.7-21,11-28.5c7.3-7.4,16.7-11.2,28-11.2,9.9,0,18,2.8,24.3,8.3s9.5,12.6,9.5,21.1c0,4.5-.5,7.4-1.4,8.7-1,1.6-2.8,2.2-5.6,2.2ZM262.8,83.3h18.8c1,0,1.7-.2,2.1-.6.4-.4.6-1.1.6-2.1,0-4.4-1.2-7.9-3.5-10.7s-5.3-4.2-8.9-4.2c-3.3,0-6.1,1.5-8.4,4.5s-3.5,6.6-3.5,11c0,.8.2,1.3.6,1.6.4.3,1.1.5,2.2.5Z" style="fill: #fff;"/>
  </g>
  <g>
    <path d="M49.4,160.1c-3-3-6.5-5.2-10.6-6.9-4.1-1.7-8.5-2.5-13.4-2.5H5v.2h-3v66.2h5.1v-.1h18.5c4.8,0,9.2-.9,13.3-2.5,4.1-1.6,7.6-3.9,10.6-6.9s5.2-6.5,6.9-10.5c1.7-4.1,2.5-8.5,2.5-13.2s-.8-9.3-2.5-13.3c-1.7-4.1-4-7.6-7-10.5ZM50,198.6c-2.4,4.3-5.8,7.7-10,10.1-4.2,2.4-9.1,3.6-14.7,3.6H7.1v-56.8h18.2c5.5,0,10.4,1.2,14.7,3.6,4.3,2.4,7.6,5.7,10,10,2.4,4.3,3.6,9.2,3.6,14.7s-1.2,10.5-3.6,14.8Z" style="fill: #accd00;"/>
    <polygon points="105.1 185.4 140.1 185.4 140.1 180.9 105.1 180.9 105.1 155.6 142.6 155.6 142.6 150.9 105.1 150.9 103.3 150.9 100 150.9 100 217.1 103.3 217.1 105.1 217.1 143.1 217.1 143.1 212.4 105.1 212.4 105.1 185.4" style="fill: #accd00;"/>
    <polygon points="205.55 209.12 182.8 150.9 177.3 150.9 203.4 217.1 207.6 217.1 233.9 150.9 228.5 150.9 205.55 209.12" style="fill: #accd00;"/>
    <path d="M305.8,191.8c-1.2-2.3-2.8-4.2-4.9-5.6-2.1-1.4-4.3-2.6-6.7-3.6-2.4-1-4.8-1.9-7.2-2.7-2.4-.9-4.7-1.9-6.7-3-2-1.1-3.7-2.5-4.9-4.2-1.2-1.7-1.8-3.9-1.8-6.6,0-3.6,1.2-6.5,3.8-8.5,2.6-2.1,6-3.1,10.1-3.1,3.6,0,6.7.7,9.3,2.1,2.6,1.4,5,3.4,7.1,6.1l3.6-3.5c-2.2-2.9-5-5.2-8.4-6.9-3.4-1.7-7.2-2.5-11.5-2.5-3.8,0-7.1.6-10,2-2.9,1.4-5.1,3.3-6.8,5.8s-2.5,5.4-2.5,8.8.6,6.2,1.9,8.4,2.9,4,4.9,5.4c2.1,1.4,4.3,2.6,6.7,3.5,2.4,1,4.9,1.9,7.3,2.8,2.4.9,4.7,1.9,6.7,3.1s3.7,2.7,4.9,4.5c1.2,1.8,1.8,4.2,1.8,7.1,0,3.8-1.5,6.8-4.3,8.9-2.9,2.1-6.6,3.2-11.1,3.2-4.2,0-7.9-.8-11.1-2.4s-6.1-4.1-8.6-7.5l-3.6,3.5c2.7,3.5,5.9,6.2,9.7,8.2s8.2,3,13.4,3c6.3,0,11.4-1.5,15.1-4.7,3.7-3,5.6-7.4,5.6-13,0-3.5-.6-6.3-1.8-8.6Z" style="fill: #accd00;"/>
  </g>
</svg>