<svg width="40" height="33" viewBox="0 0 40 33" fill="none" xmlns="http://www.w3.org/2000/svg">
<g clip-path="url(#clip0_404_436)">
<path d="M9 10.3906C10.3261 10.3906 11.5979 9.86384 12.5355 8.92616C13.4732 7.98848 14 6.71671 14 5.39063C14 4.06454 13.4732 2.79277 12.5355 1.85509C11.5979 0.917409 10.3261 0.390625 9 0.390625C7.67392 0.390625 6.40215 0.917409 5.46447 1.85509C4.52678 2.79277 4 4.06454 4 5.39063C4 6.71671 4.52678 7.98848 5.46447 8.92616C6.40215 9.86384 7.67392 10.3906 9 10.3906ZM32 10.3906C33.3261 10.3906 34.5979 9.86384 35.5355 8.92616C36.4732 7.98848 37 6.71671 37 5.39063C37 4.06454 36.4732 2.79277 35.5355 1.85509C34.5979 0.917409 33.3261 0.390625 32 0.390625C30.6739 0.390625 29.4021 0.917409 28.4645 1.85509C27.5268 2.79277 27 4.06454 27 5.39063C27 6.71671 27.5268 7.98848 28.4645 8.92616C29.4021 9.86384 30.6739 10.3906 32 10.3906ZM0 19.0594C0 19.7906 0.6 20.3906 1.33125 20.3906H14.7062C13.0437 18.9219 12 16.7781 12 14.3906C12 13.9156 12.0437 13.4531 12.1187 12.9969C11.2687 12.6031 10.325 12.3906 9.33125 12.3906H6.6625C2.9875 12.3906 0 15.3781 0 19.0594ZM20 20.3906C21.5 20.3906 22.8687 19.8406 23.9187 18.9344C24.075 18.7031 24.2437 18.4781 24.4187 18.2656C24.5875 18.0594 24.775 17.8844 24.9812 17.7469C25.625 16.7844 26 15.6344 26 14.3906C26 11.0781 23.3125 8.39062 20 8.39062C16.6875 8.39062 14 11.0781 14 14.3906C14 17.7031 16.6875 20.3906 20 20.3906ZM24.0875 24.1531C23.4437 23.7844 22.9562 23.1406 22.7875 22.3906H16.3375C11.7312 22.3906 8 26.1219 8 30.7219C8 31.6406 8.74375 32.3906 9.66875 32.3906H28.4562C28.325 32.0656 28.2562 31.7094 28.2562 31.3656V31.1781C28.175 31.1344 28.0875 31.0844 28.0062 31.0344L27.8437 31.1281C26.7937 31.7344 25.3125 31.6281 24.425 30.5219C24.1437 30.1719 23.8875 29.8031 23.65 29.4219L23.6437 29.4094L23.6375 29.3969L23.4875 29.1406L23.4812 29.1281L23.475 29.1156C23.2625 28.7281 23.075 28.3281 22.9125 27.9094C22.4 26.5844 23.05 25.2469 24.1 24.6406L24.2687 24.5469V24.2594L24.1 24.1656L24.0875 24.1531ZM33.3312 12.3906H30.6625C29.6687 12.3906 28.725 12.6094 27.875 12.9969C27.9562 13.4469 27.9937 13.9156 27.9937 14.3906C27.9937 15.4781 27.775 16.5094 27.3875 17.4531C27.5437 17.5094 27.6937 17.5781 27.8312 17.6594L27.9937 17.7531C28.075 17.7031 28.1562 17.6531 28.2437 17.6094V17.4219C28.2437 16.2094 29.075 14.9781 30.4812 14.7594C30.975 14.6844 31.4812 14.6406 31.9937 14.6406C32.5062 14.6406 33.0125 14.6781 33.5062 14.7594C34.9125 14.9781 35.7437 16.2094 35.7437 17.4219V17.6094C35.825 17.6531 35.9125 17.7031 35.9937 17.7531L36.1562 17.6594C37.2062 17.0531 38.6875 17.1594 39.575 18.2656C39.7187 18.4406 39.8562 18.6281 39.9875 18.8094C39.8562 15.2406 36.925 12.3906 33.325 12.3906H33.3312ZM39.0375 22.6344C39.4312 22.4094 39.6312 21.9406 39.4625 21.5094C39.3313 21.1656 39.175 20.8344 39 20.5156L38.8562 20.2656C38.6625 19.9469 38.45 19.6469 38.2187 19.3594C37.9312 19.0031 37.425 18.9406 37.0312 19.1719L36.85 19.2781C36.275 19.6094 35.575 19.5281 35 19.1969C34.425 18.8656 33.9937 18.2906 33.9937 17.6281V17.4156C33.9937 16.9594 33.6875 16.5531 33.2375 16.4844C32.8312 16.4219 32.4187 16.3906 31.9937 16.3906C31.5687 16.3906 31.1562 16.4219 30.75 16.4844C30.3 16.5531 29.9937 16.9594 29.9937 17.4156V17.6281C29.9937 18.2906 29.5625 18.8656 28.9875 19.1969C28.4125 19.5281 27.7125 19.6094 27.1375 19.2781L26.9562 19.1719C26.5625 18.9469 26.0562 19.0094 25.7687 19.3594C25.5375 19.6469 25.325 19.9531 25.1312 20.2719L24.9875 20.5156C24.8125 20.8344 24.6562 21.1656 24.525 21.5094C24.3625 21.9344 24.5562 22.4031 24.95 22.6281L25.1312 22.7344C25.7062 23.0656 25.9875 23.7219 25.9875 24.3844C25.9875 25.0469 25.7062 25.7031 25.1312 26.0344L24.9437 26.1406C24.55 26.3656 24.35 26.8344 24.5187 27.2594C24.65 27.6031 24.8062 27.9281 24.9812 28.2469L25.1312 28.5031C25.3187 28.8219 25.5312 29.1219 25.7625 29.4094C26.05 29.7656 26.5562 29.8281 26.95 29.5969L27.1312 29.4906C27.7062 29.1594 28.4062 29.2406 28.9812 29.5719C29.5562 29.9031 29.9875 30.4781 29.9875 31.1406V31.3531C29.9875 31.8094 30.2937 32.2156 30.7437 32.2844C31.15 32.3469 31.5625 32.3781 31.9875 32.3781C32.4125 32.3781 32.825 32.3469 33.2312 32.2844C33.6812 32.2156 33.9875 31.8094 33.9875 31.3531V31.1406C33.9875 30.4781 34.4188 29.9031 34.9937 29.5719C35.5687 29.2406 36.2687 29.1594 36.8437 29.4906L37.025 29.5969C37.4187 29.8219 37.925 29.7594 38.2125 29.4094C38.4437 29.1219 38.6562 28.8219 38.8437 28.5031L38.9937 28.2406C39.1687 27.9219 39.325 27.5969 39.4562 27.2531C39.6187 26.8281 39.425 26.3594 39.0312 26.1344L38.8437 26.0281C38.2687 25.6969 37.9875 25.0406 37.9875 24.3781C37.9875 23.7156 38.2687 23.0594 38.8437 22.7281L39.0312 22.6219L39.0375 22.6344ZM29.5 24.3906C29.5 23.7276 29.7634 23.0917 30.2322 22.6229C30.7011 22.154 31.337 21.8906 32 21.8906C32.663 21.8906 33.2989 22.154 33.7678 22.6229C34.2366 23.0917 34.5 23.7276 34.5 24.3906C34.5 25.0537 34.2366 25.6896 33.7678 26.1584C33.2989 26.6272 32.663 26.8906 32 26.8906C31.337 26.8906 30.7011 26.6272 30.2322 26.1584C29.7634 25.6896 29.5 25.0537 29.5 24.3906Z" fill="#ACCD00"/>
</g>
<defs>
<clipPath id="clip0_404_436">
<rect width="40" height="32" fill="white" transform="translate(0 0.390625)"/>
</clipPath>
</defs>
</svg>
